<svg width="96" height="96" xmlns="http://www.w3.org/2000/svg" xmlns:xlink="http://www.w3.org/1999/xlink" xml:space="preserve" overflow="hidden"><g transform="translate(-93 -31)"><path d="M143.6 78.9C143.3 80.6 143.1 82.3 143.1 84 143.1 94.6 149.6 103.7 158.8 107.7 163.3 101.4 166.1 92.7 166.1 83 166.1 76.5 164.8 71.6 162.6 67.9 158.7 73.9 151.7 78.1 143.6 78.9Z" fill="#00CCC7"/><path d="M139 84C139 82.2 138.8 80.5 138.5 78.9 130.4 78.2 123.5 74 119.5 68 117.3 71.7 116 76.6 116 83.1 116 92.7 118.8 101.4 123.3 107.8 132.6 103.7 139 94.6 139 84Z" fill="#00CCC7"/><path d="M134.5 45.2C137.1 45.2 139.4 46.2 141.1 47.9 142.8 46.2 145.1 45.2 147.7 45.2 152.8 45.2 156.9 49.3 156.9 54.3 156.9 59.3 152.8 63.4 147.7 63.4 146.6 63.4 145.6 63.2 144.6 62.9L141 68 137.5 62.8C136.5 63.1 135.5 63.3 134.4 63.3 129.3 63.3 125.2 59.2 125.2 54.2 125.2 49.3 129.4 45.2 134.5 45.2ZM141.1 75C152.8 75 162.2 66.7 162.2 56.4 162.2 54.3 161.8 52.2 161 50.4 161.1 50.2 161.1 49.9 161.1 49.6L161.5 41.7C161.4 40.7 160.4 40 159.4 40.1L151.6 42.4C151.6 42.4 151.6 42.4 151.5 42.4 149 41.8 145.6 41.4 141 41.4 136.5 41.4 133.1 41.8 130.5 42.4L130.4 42.4 122.8 40C121.8 39.9 120.8 40.6 120.7 41.6L121.1 49.5C121.1 49.8 121.1 50 121.2 50.3 120.5 52.2 120 54.2 120 56.3 120 66.7 129.4 75 141.1 75Z" fill="#00CCC7"/><path d="M151.7 54.3C151.7 56.4539 149.909 58.2 147.7 58.2 145.491 58.2 143.7 56.4539 143.7 54.3 143.7 52.1461 145.491 50.4 147.7 50.4 149.909 50.4 151.7 52.1461 151.7 54.3Z" fill="#00CCC7"/><path d="M138.5 54.3C138.5 56.4539 136.709 58.2 134.5 58.2 132.291 58.2 130.5 56.4539 130.5 54.3 130.5 52.1461 132.291 50.4 134.5 50.4 136.709 50.4 138.5 52.1461 138.5 54.3Z" fill="#00CCC7"/><path d="M131 119C132.1 119 133 116.1 133 115 133 113.9 132.1 113 131 113 130.4 113 129.9 113.3 129.5 113.7 129.1 113.3 128.6 113 128 113 127.4 113 126.9 113.3 126.5 113.7 126.1 113.3 125.6 113 125 113 123.9 113 123 113.9 123 115 123 116.1 123.9 119 125 119 125.6 119 126.1 118.1 126.5 117.2 126.9 118.2 127.4 119 128 119 128.6 119 129.1 118.1 129.5 117.2 129.9 118.1 130.4 119 131 119Z" fill="#00CCC7"/><path d="M151 109C151.5 109 152 109.1 152.5 109.2 152.6 109.2 152.8 109.1 152.9 109.1 147.6 105.7 143.4 100.7 141 94.7 138.7 100.6 134.5 105.7 129.1 109.1 129.2 109.1 129.3 109.1 129.4 109.2 129.9 109.1 130.4 109 130.9 109 134.2 109 136.9 111.7 136.9 115 136.9 115.6 136.8 116.5 136.5 117.4 137.9 117.8 139.4 118 140.9 118 142.4 118 143.8 117.8 145.2 117.5 144.9 116.5 144.8 115.6 144.8 115 145 111.7 147.7 109 151 109Z" fill="#00CCC7"/><path d="M157 113C156.4 113 155.9 113.3 155.5 113.7 155.1 113.3 154.6 113 154 113 153.4 113 152.9 113.3 152.5 113.7 152.1 113.3 151.6 113 151 113 149.9 113 149 113.9 149 115 149 116.1 149.9 119 151 119 151.6 119 152.1 118.1 152.5 117.2 152.9 118.2 153.4 119 154 119 154.6 119 155.1 118.1 155.5 117.2 155.9 118.2 156.4 119 157 119 158.1 119 159 116.1 159 115 159 113.9 158.1 113 157 113Z" fill="#00CCC7"/></g></svg>